<?xml version="1.0" encoding="UTF-8" standalone="no"?><!DOCTYPE svg PUBLIC "-//W3C//DTD SVG 1.1//EN" "http://www.w3.org/Graphics/SVG/1.1/DTD/svg11.dtd"><svg width="100%" height="100%" viewBox="0 0 64 64" version="1.1" xmlns="http://www.w3.org/2000/svg" xmlns:xlink="http://www.w3.org/1999/xlink" xml:space="preserve" xmlns:serif="http://www.serif.com/" style="fill-rule:evenodd;clip-rule:evenodd;stroke-linejoin:round;stroke-miterlimit:2;"><path id="char" d="M57.155,29.335l-50.976,-0.877l-1.689,-23.882l17.524,16.913l10.045,-21.489l8.518,20.68c0,0 12.758,-9.603 18.933,-16.108l-2.355,24.763Zm-1.201,10.968l-48.569,-0.881l-0.544,-7.449l50.314,0.88l-1.201,7.45Zm-2.015,20.448l-3.068,3.249l-38.207,-0.084l-3.269,-2.866l0,-18.67l44.544,1.037m-31.755,9.977c-0.019,-0.316 -0.083,-0.977 -0.129,-1.276c-0.204,-1.416 -1.421,-4.311 -2.649,-4.972c-0.072,-0.03 -0.234,-0.072 -0.31,-0.085c-0.105,-0.016 -0.2,-0.016 -0.306,-0.016c-0.797,0.042 -1.806,1.479 -2.105,2.182c-0.54,1.281 -0.612,4.378 -0.461,5.735c0.08,0.682 0.688,2.76 1.338,3.147c0.813,0.489 3.454,0.481 4.047,-0.522c0.303,-0.51 0.548,-2.57 0.582,-2.878c0.019,-0.156 -0.007,-1.475 -0.007,-1.315m26.147,-1.377c-0.124,-1.269 -1.379,-4.454 -2.585,-4.939c-0.139,-0.05 -0.453,-0.097 -0.6,-0.088c-0.068,0.004 -0.235,0.034 -0.303,0.055c-0.725,0.21 -1.613,1.538 -1.897,2.258c-0.495,1.251 -0.68,4.391 -0.472,5.722c0.109,0.687 0.631,2.954 1.372,3.308c0.99,0.476 3.971,-0.287 4.259,-1.656c0.105,-0.497 0.283,-1.584 0.336,-2.094" style="fill:#fff;fill-rule:nonzero;"/></svg>