<?xml version="1.0" encoding="UTF-8" standalone="no"?><!DOCTYPE svg PUBLIC "-//W3C//DTD SVG 1.1//EN" "http://www.w3.org/Graphics/SVG/1.1/DTD/svg11.dtd"><svg width="100%" height="100%" viewBox="0 0 52 64" version="1.1" xmlns="http://www.w3.org/2000/svg" xmlns:xlink="http://www.w3.org/1999/xlink" xml:space="preserve" xmlns:serif="http://www.serif.com/" style="fill-rule:evenodd;clip-rule:evenodd;stroke-linejoin:round;stroke-miterlimit:2;"><g id="fame"><path d="M8.379,31.293c-0.551,-1.801 -0.848,-3.713 -0.848,-5.693c-0,-10.745 8.724,-19.469 19.469,-19.469c10.745,-0 19.469,8.724 19.469,19.469c0,2.078 -0.326,4.079 -0.931,5.957l4.863,13.39c0.535,1.472 0.259,3.117 -0.726,4.336l-8.998,11.127c-1.064,1.315 -2.778,1.918 -4.43,1.556c-1.653,-0.361 -2.959,-1.624 -3.377,-3.263l-3.509,-13.776c-0.774,0.094 -4.045,0.088 -4.864,-0.018l-3.356,13.751c-0.403,1.651 -1.708,2.93 -3.366,3.301c-1.658,0.372 -3.383,-0.229 -4.452,-1.551l-8.998,-11.127c-0.974,-1.204 -1.255,-2.826 -0.743,-4.288l4.797,-13.702Z"/><path d="M30.633,35.739l-9.484,-0.058l-5.35,21.919l-8.999,-11.128l5.514,-15.749l7.286,-17.923l12.8,0l7.045,17.826l5.755,15.846l-8.999,11.128l-5.568,-21.861Z" style="fill:#bb1917;"/><clipPath id="_clip1"><path d="M30.633,35.739l-9.484,-0.058l-5.35,21.919l-8.999,-11.128l5.514,-15.749l7.286,-17.923l12.8,0l7.045,17.826l5.755,15.846l-8.999,11.128l-5.568,-21.861Z"/></clipPath><g clip-path="url(#_clip1)"><path d="M26,56l19.2,-24l-6.4,-12.8l-12.8,7.8l-12.8,-7.8l-6.4,12.8l19.2,24Z" style="fill:#741616;"/></g><path d="M26,10.6c8.279,0 15,6.721 15,15c0,8.279 -6.721,15 -15,15c-8.279,-0 -15,-6.721 -15,-15c0,-8.279 6.721,-15 15,-15Zm0,6.276c4.263,-0 7.724,3.461 7.724,7.724c0,4.263 -3.461,7.724 -7.724,7.724c-4.263,0 -7.724,-3.461 -7.724,-7.724c-0,-4.263 3.461,-7.724 7.724,-7.724Z" style="fill:#a36a35;"/><clipPath id="_clip2"><path d="M26,10.6c8.279,0 15,6.721 15,15c0,8.279 -6.721,15 -15,15c-8.279,-0 -15,-6.721 -15,-15c0,-8.279 6.721,-15 15,-15Zm0,6.276c4.263,-0 7.724,3.461 7.724,7.724c0,4.263 -3.461,7.724 -7.724,7.724c-4.263,0 -7.724,-3.461 -7.724,-7.724c-0,-4.263 3.461,-7.724 7.724,-7.724Z"/></clipPath><g clip-path="url(#_clip2)"><circle cx="26" cy="24.6" r="12.8" style="fill:#c79e6f;"/></g></g></svg>