<?xml version="1.0" encoding="UTF-8" standalone="no"?><!DOCTYPE svg PUBLIC "-//W3C//DTD SVG 1.1//EN" "http://www.w3.org/Graphics/SVG/1.1/DTD/svg11.dtd"><svg width="100%" height="100%" viewBox="0 0 55 64" version="1.1" xmlns="http://www.w3.org/2000/svg" xmlns:xlink="http://www.w3.org/1999/xlink" xml:space="preserve" xmlns:serif="http://www.serif.com/" style="fill-rule:evenodd;clip-rule:evenodd;stroke-linejoin:round;stroke-miterlimit:2;"><g id="prestige"><path d="M20.224,14.308l2.684,-5.485c0.722,-1.474 2.317,-2.423 4.076,-2.423c1.759,0 3.354,0.949 4.076,2.423l2.684,5.485c4.314,1.493 7.891,4.373 10.086,8.049l2.789,-1.71c1.739,-1.066 4.05,-0.881 5.563,0.445c1.513,1.327 1.824,3.441 0.749,5.089l-22.115,33.893c-0.807,1.238 -2.262,1.995 -3.832,1.995c-1.57,0 -3.025,-0.757 -3.833,-1.995l-22.114,-33.893c-1.076,-1.648 -0.765,-3.762 0.748,-5.089c1.513,-1.326 3.824,-1.511 5.564,-0.445l2.789,1.71c2.195,-3.676 5.772,-6.557 10.086,-8.049Z"/><ellipse cx="25.984" cy="30.845" rx="14.743" ry="13.557" style="fill:#c52a1d;"/><path d="M25.984,10.51l13.268,27.114l-13.268,6.778l-13.269,-6.778l13.269,-27.114Z" style="fill:#f38418;"/><path d="M3.87,24.067l22.114,13.557l22.114,-13.557l-22.114,33.892l-22.114,-33.892Z" style="fill:#fbbc4c;"/><path d="M25.984,24.067l7.371,13.557l-7.371,13.557l-7.372,-13.557l7.372,-13.557Z" style="fill:#ed232a;"/><clipPath id="_clip1"><path d="M25.984,24.067l7.371,13.557l-7.371,13.557l-7.372,-13.557l7.372,-13.557Z"/></clipPath><g clip-path="url(#_clip1)"><path d="M13.184,34.419l12.8,7.356l12.8,-7.356l-12.8,-10.352l-12.8,10.352Z" style="fill:#f45566;"/></g></g></svg>