<?xml version="1.0" encoding="UTF-8" standalone="no"?><!DOCTYPE svg PUBLIC "-//W3C//DTD SVG 1.1//EN" "http://www.w3.org/Graphics/SVG/1.1/DTD/svg11.dtd"><svg width="100%" height="100%" viewBox="0 0 52 64" version="1.1" xmlns="http://www.w3.org/2000/svg" xmlns:xlink="http://www.w3.org/1999/xlink" xml:space="preserve" xmlns:serif="http://www.serif.com/" style="fill-rule:evenodd;clip-rule:evenodd;stroke-linejoin:round;stroke-miterlimit:2;"><g id="_3" serif:id="3"><path d="M26,13.8l-18.531,19.2l18.531,6.4l19.458,-6.4l-19.458,-19.2Z" style="fill:#e03f2e;"/><g><path d="M2.605,26.6l15.983,10.4l7.412,-6.4l7.412,6.4l15.983,-10.4l0,9.4l-8.57,5.4l0,8.8l-14.825,10.8l-14.825,-10.8l0,-8.8l-8.57,-5.4l0,-9.4Zm17.141,19.2l6.254,5.4l6.254,-5.4l-6.254,-5.4l-6.254,5.4Zm19.921,-21.6l-6.255,3.8l-7.412,-7.4l-7.412,7.4l-7.413,-3.8l14.825,-18.8l13.667,18.8Z" style="fill:#d99b3b;"/></g></g></svg>